<svg id="Layer_1" data-name="Layer 1" xmlns="http://www.w3.org/2000/svg" xmlns:xlink="http://www.w3.org/1999/xlink" viewBox="0 0 459.21 95.31"><defs><style>.cls-1{fill:none;}.cls-2{fill:#fff;}.cls-3{clip-path:url(#clip-path);}.cls-4{fill:url(#linear-gradient);}.cls-5{clip-path:url(#clip-path-2);}.cls-6{fill:url(#linear-gradient-2);}.cls-7{clip-path:url(#clip-path-3);}.cls-8{fill:url(#linear-gradient-3);}</style><clipPath id="clip-path"><path class="cls-1" d="M46.74,23.24c-.39-.33-.8-.65-1.21-1,.41.31.82.63,1.21,1m-1.21-1-1.25-.89,1.25.89M44,21.21l.29.18c-.1-.06-.19-.15-.29-.22ZM12.83,44.91A15.58,15.58,0,1,1,28.41,60.48,15.6,15.6,0,0,1,12.83,44.91M0,44.91A28.4,28.4,0,0,0,44.21,68.5,6.57,6.57,0,0,1,44,66.9V21.21A28.34,28.34,0,0,0,0,44.91"/></clipPath><linearGradient id="linear-gradient" x1="-208.36" y1="297.61" x2="-207.36" y2="297.61" gradientTransform="matrix(0, 46.98, 46.98, 0, -13957.36, 9817.73)" gradientUnits="userSpaceOnUse"><stop offset="0" stop-color="aqua"/><stop offset="1" stop-color="#fc2a69"/></linearGradient><clipPath id="clip-path-2"><path class="cls-1" d="M44.21,68.5A6.57,6.57,0,0,1,44,66.9a6.42,6.42,0,0,0,12.83,0v-22A28.41,28.41,0,0,1,44.21,68.5M44,6.41V21.17A28.41,28.41,0,0,1,56.82,44.91V6.41A6.42,6.42,0,0,0,44,6.41"/></clipPath><linearGradient id="linear-gradient-2" x1="-208.34" y1="297.77" x2="-207.34" y2="297.77" gradientTransform="matrix(0, -72.25, -72.25, 0, 21564.38, -14980.78)" xlink:href="#linear-gradient"/><clipPath id="clip-path-3"><path class="cls-1" d="M44,66.9a6.57,6.57,0,0,0,.22,1.6A28.37,28.37,0,0,0,44,21.17Z"/></clipPath><linearGradient id="linear-gradient-3" x1="-208.36" y1="297.74" x2="-207.36" y2="297.74" gradientTransform="matrix(-39.9, 0, 0, 39.9, -8258.45, -11836.24)" xlink:href="#linear-gradient"/></defs><title>diagnost</title><path class="cls-2" d="M142,44.9a15.58,15.58,0,1,1-15.58-15.57A15.59,15.59,0,0,1,142,44.9m12.83,22v-22a28.43,28.43,0,1,0-12.62,23.61,6.41,6.41,0,0,0,12.62-1.61"/><path class="cls-2" d="M78.75,73.31a6.41,6.41,0,0,1-6.42-6.41V23.52a6.42,6.42,0,0,1,12.83,0V66.9a6.41,6.41,0,0,1-6.41,6.41"/><path class="cls-2" d="M211.68,44.91A15.58,15.58,0,1,1,196.1,29.33a15.59,15.59,0,0,1,15.58,15.58m12.83,21.73V44.91a28.43,28.43,0,1,0-12.79,23.71,14.74,14.74,0,0,1-3.37,9.23c-2.78,3.07-7.43,4.63-13.8,4.63-6.09,0-10.81-1.44-14.05-4.27a6.41,6.41,0,1,0-8.45,9.64c5.64,5,13.21,7.46,22.5,7.46,10.15,0,18-3,23.31-8.85,7-7.76,6.81-17.55,6.65-19.82"/><path class="cls-2" d="M289.07,73.31a6.41,6.41,0,0,1-6.41-6.41v-22a21.12,21.12,0,0,0-2.23-8.44c-2.54-4.8-6.9-7.13-13.35-7.13s-11,2.43-13.51,7.45a21.24,21.24,0,0,0-2.07,8.12v22a6.42,6.42,0,0,1-12.83,0v-22A33.62,33.62,0,0,1,242.1,31c4.69-9.38,13.56-14.54,25-14.54s20.29,5.16,25,14.54a33.62,33.62,0,0,1,3.43,13.86v22a6.41,6.41,0,0,1-6.42,6.41"/><path class="cls-2" d="M336.13,29.24a15.58,15.58,0,1,0,15.58,15.58,15.6,15.6,0,0,0-15.58-15.58m0,44a28.41,28.41,0,1,1,28.41-28.41,28.44,28.44,0,0,1-28.41,28.41"/><path class="cls-2" d="M459.21,22.91a6.41,6.41,0,0,0-6.41-6.41H442.72V6.42a6.42,6.42,0,1,0-12.83,0v44c0,9.21,6.1,22.91,22.91,22.91a6.42,6.42,0,0,0,0-12.83c-5.53,0-7.53-2.52-8.55-4.42a14.25,14.25,0,0,1-1.53-5.66V29.33H452.8a6.42,6.42,0,0,0,6.41-6.42"/><path class="cls-2" d="M377.85,67.25h0c6.49,4.13,12.46,6,19.37,6,11.86,0,20.15-7.07,20.15-17.2,0-13.08-14.28-16.51-21.14-18.16h-.06c-1.36-.33-2.43-.59-3.16-.85-1-.31-3.69-1.4-4.21-2.68l0-.12a1.41,1.41,0,0,1-.07-.48c0-2.19.49-4.33,6.38-4.33a18.73,18.73,0,0,1,8.78,2.32l.11.05c.55.26,1.11.53,1.66.76a5.79,5.79,0,0,0,2.32.65,1,1,0,0,1,.32,0l.11,0h.15A6.48,6.48,0,0,0,411.49,21,51.35,51.35,0,0,0,405,18.15C396.76,15.28,388.1,16,382.45,20c-4.31,3.07-6.6,7.76-6.6,13.57v.13c0,8.52,6.08,14.22,18.07,17,4.32.92,9.65,2.45,10.44,4.56l.05.23h0a2.54,2.54,0,0,1,.05.56c0,3.77-4.51,4.33-7.21,4.33-5.56,0-9.49-2.07-12.9-4.32h-.07l-.12-.08a6.68,6.68,0,0,0-3.5-1,6.48,6.48,0,0,0-2.8,12.31"/><g class="cls-3"><rect class="cls-4" x="-13.32" y="8.39" width="73.38" height="73.03" transform="translate(-25.27 30.86) rotate(-46.4)"/></g><g class="cls-5"><rect class="cls-6" x="43.99" width="12.83" height="73.31"/></g><g class="cls-7"><rect class="cls-8" x="26.68" y="38.17" width="47.45" height="13.32" transform="translate(5.04 94.77) rotate(-89.4)"/></g></svg>