<svg id="_Layer_" data-name="&lt;Layer&gt;" xmlns="http://www.w3.org/2000/svg" viewBox="0 0 186.47 79.39"><defs><style>.cls-1{fill:#fff;}.cls-2{fill:#ef4136;}</style></defs><title>good</title><path class="cls-1" d="M19.88,42.58h8.49v5.48a13.5,13.5,0,0,1-7.94,2.3c-6.79,0-11.61-5.15-11.61-12.16v-.11c0-6.52,4.87-11.94,11-11.94,4.44,0,7.07,1.42,10,3.89l5.31-6.41c-4-3.39-8.16-5.26-15.06-5.26A19.68,19.68,0,0,0,0,38.2v.11C0,49.64,8.21,58,20.15,58a24.92,24.92,0,0,0,16.38-6.08V35.3H19.88ZM63.36,18.37c-11.83,0-20.43,8.93-20.43,19.83v.11C42.93,49.21,51.42,58,63.25,58S83.68,49.1,83.68,38.2v-.11C83.68,27.19,75.19,18.37,63.36,18.37Zm11.5,19.94c0,6.57-4.71,11.94-11.5,11.94s-11.61-5.48-11.61-12v-.11c0-6.57,4.71-11.94,11.5-11.94S74.86,31.63,74.86,38.2Zm34-19.94C97,18.37,88.39,27.3,88.39,38.2v.11C88.39,49.21,96.87,58,108.7,58s20.43-8.92,20.43-19.82v-.11C129.13,27.19,120.64,18.37,108.81,18.37Zm11.5,19.94c0,6.57-4.71,11.94-11.5,11.94S97.2,44.77,97.2,38.2v-.11c0-6.57,4.71-11.94,11.5-11.94s11.61,5.48,11.61,12.05ZM151.58,19h-15V57.37h15c12,0,20.37-8.38,20.37-19.17v-.11C172,27.3,163.63,19,151.58,19Zm11.56,19.28c0,6.79-4.66,11.44-11.56,11.44h-6.52V26.64h6.52c6.9,0,11.56,4.77,11.56,11.56Z"/><path class="cls-2" d="M43.07,69.34l5-8.68c9.1,5.23,22.76,8.74,38,8.73h0c15,0,28.47-3.4,37.56-8.51h0l4.88,8.73c-11,6.15-26,9.76-42.44,9.78h0c-16.72,0-31.84-3.73-42.92-10Z"/><path class="cls-1" d="M175.26,6.42h-1V8.15h1a.87.87,0,0,0,1-.86h0C176.27,6.72,175.88,6.42,175.26,6.42Zm5.49,0h-1.23V8h1.26c.6,0,.95-.32.95-.79v0C181.73,6.7,181.36,6.42,180.75,6.42ZM177.84,0a8.64,8.64,0,1,0,8.63,8.63A8.63,8.63,0,0,0,177.84,0Zm-.31,7.27a2,2,0,0,1-2.28,2h-.95v1.69h-1.24V5.3h2.31a1.94,1.94,0,0,1,2.16,2Zm4.17,3.67-1.2-1.8h-1v1.8h-1.24V5.3h2.58a2.24,2.24,0,0,1,1.64.58A1.73,1.73,0,0,1,183,7.16v0a1.77,1.77,0,0,1-1.21,1.75l1.38,2Z"/></svg>