<svg id="Layer_1" data-name="Layer 1" xmlns="http://www.w3.org/2000/svg" viewBox="0 0 51 51"><defs><style>.cls-1{fill:none;stroke:#fff;stroke-miterlimit:10;stroke-width:2px;}</style></defs><title>icon-full</title><path class="cls-1" d="M50,25.5A24.5,24.5,0,1,1,25.5,1,24.5,24.5,0,0,1,50,25.5Z"/><path class="cls-1" d="M35.4,32.93A9.9,9.9,0,1,1,25.5,23,9.9,9.9,0,0,1,35.4,32.93Z"/><path class="cls-1" d="M35.4,18.07a9.9,9.9,0,1,1-9.9-9.9A9.91,9.91,0,0,1,35.4,18.07Z"/><path class="cls-1" d="M18.07,35.4A9.9,9.9,0,1,1,28,25.5,9.9,9.9,0,0,1,18.07,35.4Z"/><path class="cls-1" d="M32.93,35.4a9.9,9.9,0,1,1,9.9-9.9A9.91,9.91,0,0,1,32.93,35.4Z"/></svg>