<svg xmlns="http://www.w3.org/2000/svg" width="125px" height="153px" viewBox="0 0 100 123.21"><defs><style>.cls-1{fill:#fb2a69;fill-rule:evenodd;}.cls-2{fill:none;stroke:#4f5358;stroke-miterlimit:10;stroke-width:2px;}</style></defs><title>slide_2</title><g id="Слой_2" data-name="Слой 2"><path class="cls-1" d="M24.2,25.29a23,23,0,1,1-23,23A23,23,0,0,1,24.2,25.29Z"/><path class="cls-1" d="M33.6,120.33H68.88v2.88H33.6Z"/></g><g id="Capa_1" data-name="Capa 1"><path class="cls-2" d="M77.05,34.17A12.55,12.55,0,1,1,64.5,21.62,12.55,12.55,0,0,1,77.05,34.17Z"/><path class="cls-2" d="M68.92,39.17A6.66,6.66,0,0,1,60,39.11"/><path class="cls-2" d="M43.44,43.43H35.16a22.75,22.75,0,1,1,8.27-8.27Z"/><path class="cls-2" d="M4.06,67.43h8.28a22.75,22.75,0,1,0-8.27-8.27Z"/><path class="cls-2" d="M49,51.4a25.31,25.31,0,0,1,14.4-4.48h2.14A25.59,25.59,0,0,1,91.08,72.43v31"/><path class="cls-2" d="M38.44,67.3A25.62,25.62,0,0,1,49,51.4"/><line class="cls-2" x1="100" y1="104.25" x2="8.83" y2="104.25"/><rect class="cls-2" x="17.33" y="67.58" width="57.67" height="36.67"/><path class="cls-2" d="M49.33,78.75a3.17,3.17,0,1,1-3.16-3.17A3.16,3.16,0,0,1,49.33,78.75Z"/></g></svg>