<svg xmlns="http://www.w3.org/2000/svg" width="186px" height="135px" viewBox="0 0 148.43 106.9"><defs><style>.cls-1{fill:#fb2a69;fill-rule:evenodd;}.cls-2{fill:none;stroke:#4f5358;stroke-miterlimit:10;stroke-width:2px;}</style></defs><title>slide_4</title><g id="Слой_2" data-name="Слой 2"><path class="cls-1" d="M47.17,9a23,23,0,1,1-23,23A23,23,0,0,1,47.17,9Z"/><path class="cls-1" d="M56.57,104H91.86v2.88H56.57Z"/></g><g id="Capa_1" data-name="Capa 1"><path class="cls-2" d="M97.4,1h0a29.79,29.79,0,0,0-23,10.62A29.45,29.45,0,0,0,51.45,1a30.1,30.1,0,0,0-30.1,30.1c0,28.48,49.72,56.3,51.73,57.37a2.4,2.4,0,0,0,2.69,0C77.79,87.4,127.5,60,127.5,31.1A30.1,30.1,0,0,0,97.4,1Z"/><polyline class="cls-2" points="0 48.01 40.57 48.01 54.32 12.44 74.07 68.44 90.07 32.44 97.07 47.94 148.43 47.94"/></g></svg>