<svg id="Слой_1" data-name="Слой 1" xmlns="http://www.w3.org/2000/svg" width="105px" height="154px" viewBox="0 0 87.67 128.87"><defs><style>.cls-1{fill:#3767f6;fill-rule:evenodd;}.cls-2{fill:none;stroke:#4f5358;stroke-miterlimit:10;stroke-width:2px;}</style></defs><title>slide_icon_3</title><path class="cls-1" d="M24.15,26.05A24.15,24.15,0,1,1,0,50.2,24.15,24.15,0,0,1,24.15,26.05Z"/><path class="cls-1" d="M34,125.84h37v3H34Z"/><g id="Capa_1" data-name="Capa 1"><path class="cls-2" d="M65.72,14.2A13.18,13.18,0,1,1,52.54,1,13.16,13.16,0,0,1,65.72,14.2Z"/><path class="cls-2" d="M66.6,52A14.06,14.06,0,1,1,52.54,37.92,14.06,14.06,0,0,1,66.6,52Z"/><rect class="cls-2" x="18.42" y="10.41" width="68.25" height="99.4"/><rect class="cls-2" x="26.64" y="19.33" width="51.8" height="81.56"/><polyline class="cls-2" points="60.91 48.3 50.63 58.57 44.17 52.06"/><line class="cls-2" x1="34.78" y1="77.08" x2="70.31" y2="77.08"/><line class="cls-2" x1="34.78" y1="84" x2="70.31" y2="84"/><line class="cls-2" x1="34.78" y1="90.91" x2="70.31" y2="90.91"/></g></svg>