<svg id="Слой_1" data-name="Слой 1" xmlns="http://www.w3.org/2000/svg" width="110px" height="154px" viewBox="0 0 88.71 122.88"><defs><style>.cls-1{fill:#3767f6;fill-rule:evenodd;}.cls-2{fill:none;stroke:#4f5358;stroke-miterlimit:10;stroke-width:2px;}</style></defs><title>slide_icon_6</title><path class="cls-1" d="M23,25A23,23,0,1,1,0,48,23,23,0,0,1,23,25Z"/><path class="cls-1" d="M32.43,120H67.72v2.88H32.43Z"/><g id="Capa_1" data-name="Capa 1"><path class="cls-2" d="M55.43,84.54c-1,.09-2.06.14-3.1.14A35.42,35.42,0,0,1,18,58"/><path class="cls-2" d="M68.4,17.78a35.38,35.38,0,0,1,1.8,62.05"/><path class="cls-2" d="M55.42,71.46A22.34,22.34,0,0,1,31.71,58"/><path class="cls-2" d="M61,28.68A22.37,22.37,0,0,1,73,58a22.79,22.79,0,0,1-3,5.09"/><line class="cls-2" x1="12.46" y1="58.18" x2="49.71" y2="58.18"/><rect class="cls-2" x="31.92" y="19.12" width="46.37" height="13.5" transform="translate(2.68 56.81) rotate(-55.7)"/><line class="cls-2" x1="59.56" y1="0.83" x2="76.8" y2="12.59"/><line class="cls-2" x1="51.25" y1="13.02" x2="68.49" y2="24.78"/><rect class="cls-2" x="55.52" y="62.81" width="14.63" height="29.13"/><rect class="cls-2" x="20.15" y="91.93" width="59.88" height="13.13"/><line class="cls-2" x1="13.15" y1="105.06" x2="87.02" y2="105.06"/></g></svg>