<svg id="Слой_1" data-name="Слой 1" xmlns="http://www.w3.org/2000/svg" width="115px" height="154px" viewBox="0 0 92.34 122.69"><defs><style>.cls-1{fill:aqua;fill-rule:evenodd;}.cls-2{fill:none;stroke:#4f5358;stroke-miterlimit:10;stroke-width:2px;}</style></defs><title>slide_icon_5</title><path class="cls-1" d="M23,24.77a23,23,0,1,1-23,23A23,23,0,0,1,23,24.77Z"/><path class="cls-1" d="M32.43,119.81H67.72v2.88H32.43Z"/><g id="Capa_1" data-name="Capa 1"><path class="cls-2" d="M49,64.37a8.72,8.72,0,0,0-2.62-3.19,8.71,8.71,0,0,0,0-13.93,8.66,8.66,0,0,0,3.48-7V36A15.6,15.6,0,0,0,47,27L38.69,15.11a5.21,5.21,0,0,0,2.44-4.42V6.22A5.22,5.22,0,0,0,35.91,1H22a5.22,5.22,0,0,0-5.23,5.21h0v4.47a5.21,5.21,0,0,0,2.44,4.42L10.88,27a15.59,15.59,0,0,0-2.83,9v4.31a8.71,8.71,0,0,0,3.48,7,8.72,8.72,0,0,0-1.74,12.2,8.91,8.91,0,0,0,1.74,1.73A8.71,8.71,0,0,0,9.8,73.44h0a8.34,8.34,0,0,0,1.73,1.73,8.71,8.71,0,0,0-3.48,7V92a12.2,12.2,0,0,0,12.19,12.18H37.65a12.18,12.18,0,0,0,11.22-7.45"/><line class="cls-2" x1="19.19" y1="15.1" x2="38.69" y2="15.1"/><line class="cls-2" x1="11.53" y1="47.24" x2="46.35" y2="47.24"/><line class="cls-2" x1="11.53" y1="61.16" x2="46.35" y2="61.16"/><line class="cls-2" x1="11.53" y1="75.07" x2="43.21" y2="75.07"/><path class="cls-2" d="M8,31.44c7,0,7,4,13.94,4s7-4,14-4,7,4,13.94,4"/><path class="cls-2" d="M91.34,80.21A24.25,24.25,0,1,1,67.05,56h0A24.25,24.25,0,0,1,91.34,80.21Z"/><line class="cls-2" x1="67.09" y1="41.79" x2="67.09" y2="55.95"/><path class="cls-2" d="M75.73,44.37a10.36,10.36,0,0,0-8.39,4.28,10.39,10.39,0,0,0,16.79,0A10.38,10.38,0,0,0,75.73,44.37Z"/></g></svg>